<mxfile host="app.diagrams.net" modified="2021-08-06T06:28:45.429Z" agent="5.0 (Macintosh; Intel Mac OS X 10_14_5) AppleWebKit/537.36 (KHTML, like Gecko) Chrome/92.0.4515.107 Safari/537.36" etag="vlZjHjYRoTM_8QK709yC" version="14.9.3" type="github">
  <diagram id="VIsvTf7BrgFB8WdMzlMH" name="第 1 页">
    <mxGraphModel dx="1426" dy="771" grid="1" gridSize="10" guides="1" tooltips="1" connect="1" arrows="1" fold="1" page="1" pageScale="1" pageWidth="827" pageHeight="1169" math="0" shadow="0">
      <root>
        <mxCell id="0" />
        <mxCell id="1" parent="0" />
        <mxCell id="bA2CGIKTV9IH9ii1JOU--1" style="edgeStyle=none;rounded=0;orthogonalLoop=1;jettySize=auto;html=1;exitX=0.5;exitY=1;exitDx=0;exitDy=0;entryX=0.75;entryY=0;entryDx=0;entryDy=0;" edge="1" parent="1" source="bA2CGIKTV9IH9ii1JOU--7" target="bA2CGIKTV9IH9ii1JOU--6">
          <mxGeometry relative="1" as="geometry">
            <mxPoint x="-930" y="150" as="targetPoint" />
          </mxGeometry>
        </mxCell>
        <mxCell id="bA2CGIKTV9IH9ii1JOU--2" value="&lt;pre&gt;&lt;font style=&quot;font-size: 12px&quot; face=&quot;Helvetica&quot;&gt;转账定时任务&lt;/font&gt;&lt;/pre&gt;&lt;pre&gt;&lt;font style=&quot;font-size: 12px&quot; face=&quot;Helvetica&quot;&gt;AgentPayTaskService.doTransferTask&lt;/font&gt;&lt;/pre&gt;" style="text;html=1;align=center;verticalAlign=middle;resizable=0;points=[];labelBackgroundColor=#ffffff;" vertex="1" connectable="0" parent="bA2CGIKTV9IH9ii1JOU--1">
          <mxGeometry x="0.3653" relative="1" as="geometry">
            <mxPoint x="4.359999999999998" y="-20.21" as="offset" />
          </mxGeometry>
        </mxCell>
        <mxCell id="bA2CGIKTV9IH9ii1JOU--3" style="rounded=0;orthogonalLoop=1;jettySize=auto;html=1;exitX=0.25;exitY=1;exitDx=0;exitDy=0;entryX=0.5;entryY=0;entryDx=0;entryDy=0;" edge="1" parent="1" source="bA2CGIKTV9IH9ii1JOU--5" target="bA2CGIKTV9IH9ii1JOU--12">
          <mxGeometry relative="1" as="geometry" />
        </mxCell>
        <mxCell id="bA2CGIKTV9IH9ii1JOU--4" value="&lt;pre&gt;&lt;font face=&quot;Helvetica&quot;&gt;出金单笔结算&lt;/font&gt;&lt;/pre&gt;&lt;pre&gt;&lt;font style=&quot;font-size: 12px&quot; face=&quot;Helvetica&quot;&gt;WithdrawService.singleFundSettlement&lt;/font&gt;&lt;/pre&gt;" style="text;html=1;align=center;verticalAlign=middle;resizable=0;points=[];labelBackgroundColor=#ffffff;" vertex="1" connectable="0" parent="bA2CGIKTV9IH9ii1JOU--3">
          <mxGeometry x="-0.0077" y="-1" relative="1" as="geometry">
            <mxPoint as="offset" />
          </mxGeometry>
        </mxCell>
        <mxCell id="bA2CGIKTV9IH9ii1JOU--5" value="pay-payment-core" style="rounded=1;whiteSpace=wrap;html=1;" vertex="1" parent="1">
          <mxGeometry x="130" y="610" width="320" height="80" as="geometry" />
        </mxCell>
        <mxCell id="bA2CGIKTV9IH9ii1JOU--6" value="pay-courier" style="rounded=1;whiteSpace=wrap;html=1;" vertex="1" parent="1">
          <mxGeometry x="140" y="210" width="310" height="80" as="geometry" />
        </mxCell>
        <mxCell id="bA2CGIKTV9IH9ii1JOU--7" value="TSP" style="rounded=1;whiteSpace=wrap;html=1;" vertex="1" parent="1">
          <mxGeometry x="140" y="20" width="310" height="70" as="geometry" />
        </mxCell>
        <mxCell id="bA2CGIKTV9IH9ii1JOU--8" style="rounded=0;orthogonalLoop=1;jettySize=auto;html=1;entryX=0.75;entryY=0;entryDx=0;entryDy=0;" edge="1" parent="1" target="bA2CGIKTV9IH9ii1JOU--11">
          <mxGeometry relative="1" as="geometry">
            <mxPoint x="305" y="290" as="sourcePoint" />
          </mxGeometry>
        </mxCell>
        <mxCell id="bA2CGIKTV9IH9ii1JOU--9" value="&lt;pre&gt;&lt;pre&gt;&lt;pre&gt;&lt;pre&gt;&lt;font style=&quot;font-size: 12px&quot; face=&quot;Helvetica&quot;&gt;支付交易核心转账处理&lt;/font&gt;&lt;/pre&gt;&lt;/pre&gt;&lt;pre&gt;&lt;span style=&quot;white-space: nowrap&quot;&gt;&lt;font style=&quot;font-size: 12px&quot; face=&quot;Helvetica&quot;&gt;UnifiedTransferOperationService.&lt;/font&gt;&lt;/span&gt;&lt;font style=&quot;font-size: 12px&quot; face=&quot;Helvetica&quot;&gt;execute&lt;/font&gt;&lt;/pre&gt;&lt;/pre&gt;&lt;/pre&gt;" style="text;html=1;align=center;verticalAlign=middle;resizable=0;points=[];labelBackgroundColor=#ffffff;" vertex="1" connectable="0" parent="bA2CGIKTV9IH9ii1JOU--8">
          <mxGeometry x="-0.0899" y="1" relative="1" as="geometry">
            <mxPoint as="offset" />
          </mxGeometry>
        </mxCell>
        <mxCell id="bA2CGIKTV9IH9ii1JOU--10" value="&lt;pre&gt;&lt;pre&gt;&lt;font style=&quot;font-size: 12px&quot; face=&quot;Helvetica&quot;&gt;支付核心转账&lt;/font&gt;&lt;/pre&gt;&lt;/pre&gt;&lt;pre&gt;&lt;font face=&quot;Helvetica&quot; style=&quot;font-size: 12px&quot;&gt;TransferOperationService.execute&lt;/font&gt;&lt;/pre&gt;" style="edgeStyle=none;rounded=0;orthogonalLoop=1;jettySize=auto;html=1;exitX=0.5;exitY=1;exitDx=0;exitDy=0;entryX=0.75;entryY=0;entryDx=0;entryDy=0;" edge="1" parent="1" source="bA2CGIKTV9IH9ii1JOU--11" target="bA2CGIKTV9IH9ii1JOU--5">
          <mxGeometry relative="1" as="geometry" />
        </mxCell>
        <mxCell id="bA2CGIKTV9IH9ii1JOU--11" value="&lt;span style=&quot;font-family: &amp;#34;verdana&amp;#34;&quot;&gt;pay-trading-core&lt;/span&gt;" style="rounded=1;whiteSpace=wrap;html=1;" vertex="1" parent="1">
          <mxGeometry x="130" y="410" width="320" height="80" as="geometry" />
        </mxCell>
        <mxCell id="bA2CGIKTV9IH9ii1JOU--12" value="&lt;span style=&quot;font-family: &amp;#34;verdana&amp;#34; ; font-size: 13px&quot;&gt;pay-withdraw-channel&lt;/span&gt;" style="rounded=1;whiteSpace=wrap;html=1;" vertex="1" parent="1">
          <mxGeometry x="130" y="810" width="320" height="80" as="geometry" />
        </mxCell>
      </root>
    </mxGraphModel>
  </diagram>
</mxfile>
